HIERARCHY
ROOT Hips
{
	OFFSET 0.000000 0.000000 0.000000
	CHANNELS 6 Xposition Yposition Zposition Xrotation Yrotation Zrotation
	JOINT LeftUpLeg_virtual
	{
		OFFSET 0.000000 0.000000 0.000000
		CHANNELS 3 Xrotation Yrotation Zrotation
		JOINT LeftUpLeg
		{
			OFFSET 11.394100 -6.187798 -0.413800
			CHANNELS 3 Xrotation Yrotation Zrotation
			JOINT LeftLeg
			{
				OFFSET 0.430247 -32.302673 3.732800
				CHANNELS 3 Xrotation Yrotation Zrotation
				JOINT LeftFoot
				{
					OFFSET -0.430247 -48.264931 -6.423300
					CHANNELS 3 Xrotation Yrotation Zrotation
					JOINT LeftToeBase
					{
						OFFSET 4.230900 -16.068199 23.438400
						CHANNELS 3 Xrotation Yrotation Zrotation
						JOINT LeftToe_End
						{
							OFFSET 4.510700 0.695400 19.974600
							CHANNELS 3 Xrotation Yrotation Zrotation
							End Site
							{
								OFFSET 0 0 0
							}
						}
					}
				}
			}
		}
	}
	JOINT RightUpLeg_virtual
	{
		OFFSET 0.000000 0.000000 0.000000
		CHANNELS 3 Xrotation Yrotation Zrotation
		JOINT RightUpLeg
		{
			OFFSET -11.333700 -6.187798 -0.413800
			CHANNELS 3 Xrotation Yrotation Zrotation
			JOINT RightLeg
			{
				OFFSET -0.430392 -32.302628 3.733000
				CHANNELS 3 Xrotation Yrotation Zrotation
				JOINT RightFoot
				{
					OFFSET 0.430392 -48.264973 -6.423500
					CHANNELS 3 Xrotation Yrotation Zrotation
					JOINT RightToeBase
					{
						OFFSET -4.230900 -16.068199 23.438400
						CHANNELS 3 Xrotation Yrotation Zrotation
						JOINT RightToe_End
						{
							OFFSET -4.510700 0.695400 19.974600
							CHANNELS 3 Xrotation Yrotation Zrotation
							End Site
							{
								OFFSET 0 0 0
							}
						}
					}
				}
			}
		}
	}
	JOINT Spine_virtual
	{
		OFFSET 0.000000 0.000000 0.000000
		CHANNELS 3 Xrotation Yrotation Zrotation
		JOINT Spine
		{
			OFFSET -0.002400 12.777504 0.315300
			CHANNELS 3 Xrotation Yrotation Zrotation
			JOINT Spine1
			{
				OFFSET -0.002067 5.816869 0.032633
				CHANNELS 3 Xrotation Yrotation Zrotation
				JOINT Spine1_split
				{
					OFFSET -0.002067 5.816869 0.032633
					CHANNELS 3 Xrotation Yrotation Zrotation
					JOINT Spine2
					{
						OFFSET -0.002067 5.816869 0.032633
						CHANNELS 3 Xrotation Yrotation Zrotation
						JOINT Neck_virtual
						{
							OFFSET 0.000000 0.000000 0.000000
							CHANNELS 3 Xrotation Yrotation Zrotation
							JOINT Neck
							{
								OFFSET -0.003700 21.199493 -0.826900
								CHANNELS 3 Xrotation Yrotation Zrotation
								JOINT Head
								{
									OFFSET 0.000000 20.442200 4.834800
									CHANNELS 3 Xrotation Yrotation Zrotation
									JOINT HeadTop_End
									{
										OFFSET 0.000000 34.668396 4.968400
										CHANNELS 3 Xrotation Yrotation Zrotation
										End Site
										{
											OFFSET 0 0 0
										}
									}
								}
							}
						}
						JOINT LeftShoulder_virtual
						{
							OFFSET 0.000000 0.000000 0.000000
							CHANNELS 3 Xrotation Yrotation Zrotation
							JOINT LeftShoulder
							{
								OFFSET 3.288150 8.794197 -1.372250
								CHANNELS 3 Xrotation Yrotation Zrotation
								JOINT LeftShoulder_split
								{
									OFFSET 3.288150 8.794197 -1.372250
									CHANNELS 3 Xrotation Yrotation Zrotation
									JOINT LeftArm
									{
										OFFSET 11.953299 -2.279007 -0.146200
										CHANNELS 3 Xrotation Yrotation Zrotation
										JOINT LeftForeArm
										{
											OFFSET 18.448900 0.000000 0.000000
											CHANNELS 3 Xrotation Yrotation Zrotation
											JOINT LeftHand
											{
												OFFSET 29.527798 0.000000 0.000000
												CHANNELS 3 Xrotation Yrotation Zrotation
												End Site
												{
													OFFSET 0 0 0
												}
											}
										}
									}
								}
							}
						}
						JOINT RightShoulder_virtual
						{
							OFFSET 0.000000 0.000000 0.000000
							CHANNELS 3 Xrotation Yrotation Zrotation
							JOINT RightShoulder
							{
								OFFSET -3.249400 8.794197 -1.372250
								CHANNELS 3 Xrotation Yrotation Zrotation
								JOINT RightShoulder_split
								{
									OFFSET -3.249400 8.794197 -1.372250
									CHANNELS 3 Xrotation Yrotation Zrotation
									JOINT RightArm
									{
										OFFSET -11.953299 -2.279007 -0.146200
										CHANNELS 3 Xrotation Yrotation Zrotation
										JOINT RightForeArm
										{
											OFFSET -18.448900 0.000000 0.000000
											CHANNELS 3 Xrotation Yrotation Zrotation
											JOINT RightHand
											{
												OFFSET -29.527802 0.000000 0.000000
												CHANNELS 3 Xrotation Yrotation Zrotation
												End Site
												{
													OFFSET 0 0 0
												}
											}
										}
									}
								}
							}
						}
					}
				}
			}
		}
	}
}
MOTION
Frames: 11
Frame Time: 0.03333333
0.631321 99.400421 -1.104347 0.000000 0.000000 0.000000 5.270603 -28.762616 1.558151 -20.332893 16.828864 11.302770 21.008516 14.808183 -0.913683 0.118775 -4.449715 -4.091318 0.165557 0.394926 0.200604 0.000000 0.000000 0.000000 8.803946 -28.348803 2.372584 -8.098951 4.746723 -8.052239 11.044968 11.047817 0.952479 -6.767189 -3.245639 4.832139 1.867134 0.937272 -1.140316 0.000000 0.000000 0.000000 4.359382 -30.091689 -0.785693 7.300861 1.558649 -2.013539 0.258099 0.904191 2.775073 2.536649 2.024852 -0.214246 0.000000 0.000000 0.000000 0.827919 0.669135 4.100968 -2.364822 23.757338 -9.669369 -1.893124 10.821963 6.371539 0.000000 0.000000 0.000000 0.005079 1.027976 2.875043 0.640109 -13.556866 1.691972 -2.432834 -0.903593 -3.093704 -56.339276 -1.337677 -34.807279 12.016144 -61.898897 14.948508 0.000000 0.000000 0.000000 1.250902 1.107685 3.562371 4.633547 3.691830 8.588361 1.484353 2.292010 -3.630585 -1.181299 -11.082103 65.288610 15.339608 32.287185 -3.432185 0.000000 0.000000 0.000000 
0.978166 99.223701 -1.750149 0.000000 0.000000 0.000000 5.346903 -28.337642 2.101418 -20.049062 16.130757 11.185938 20.863484 14.044144 -1.014664 0.182525 -4.703810 -3.868796 0.755670 0.343830 0.116058 0.000000 0.000000 0.000000 8.390355 -27.438096 2.625529 -8.820990 3.838466 -8.786827 11.223797 10.916936 0.861906 -6.931028 -3.196955 3.750291 4.245808 0.887261 -0.834746 0.000000 0.000000 0.000000 4.205088 -30.484268 -0.354428 7.356016 1.311830 -1.708826 0.214683 0.655571 2.685959 1.427163 3.191519 -0.415287 0.000000 0.000000 0.000000 1.161631 0.370152 3.954853 -1.991116 23.442630 -9.507138 -2.558244 11.446200 5.670861 0.000000 0.000000 0.000000 -0.091853 0.859975 2.832520 0.408483 -12.556943 1.365766 -0.914886 -2.006568 -2.556129 -56.942126 -1.609685 -35.312361 12.937492 -62.531406 15.192059 0.000000 0.000000 0.000000 1.033927 0.749197 3.421090 4.303434 3.523709 7.829184 1.171717 1.504328 -2.729210 -1.499912 -10.215353 66.191370 14.540766 30.426225 -2.753459 0.000000 0.000000 0.000000 
1.290618 99.081802 -2.263210 0.000000 0.000000 0.000000 5.519265 -27.925688 2.767210 -19.987637 15.663739 11.369587 20.058563 13.644820 -1.148321 -0.013561 -4.340337 -3.337928 1.369586 0.238942 -0.176907 0.000000 0.000000 0.000000 7.917155 -26.250381 2.918916 -10.531713 2.788838 -9.945783 12.392267 11.120166 0.796550 -6.184986 -2.877042 3.580913 4.423012 0.767572 -0.671673 0.000000 0.000000 0.000000 4.318767 -30.804327 0.273242 7.742444 1.013885 -0.774885 0.208941 0.351796 2.098376 0.745360 3.911253 -0.302163 0.000000 0.000000 0.000000 1.615689 0.043452 3.299322 -2.210243 22.715408 -9.933426 -4.157453 12.488500 4.469721 0.000000 0.000000 0.000000 -0.032109 0.714726 2.347180 0.135914 -11.120758 0.522437 0.447061 -3.030089 -1.484107 -56.664182 -1.425465 -35.560427 11.245820 -63.274927 12.958350 0.000000 0.000000 0.000000 0.840420 0.364551 2.780829 3.903951 3.588087 5.866456 0.529869 0.824185 -1.686181 -1.264974 -10.180012 68.518702 12.996896 28.039967 -1.475331 0.000000 0.000000 0.000000 
1.806837 98.939369 -2.652267 0.000000 0.000000 0.000000 5.727576 -27.922578 3.428442 -20.378791 15.219116 11.727836 19.305589 13.378079 -1.346325 -0.520530 -3.721314 -2.918582 1.525697 0.099335 -0.483503 0.000000 0.000000 0.000000 7.466127 -25.536122 3.298425 -13.147587 1.871878 -11.299749 14.341205 11.565997 0.723140 -5.139379 -2.380767 3.796023 3.013339 0.550909 -0.465921 0.000000 0.000000 0.000000 4.792893 -31.363433 1.081455 8.490235 0.726326 0.581481 0.257540 0.059257 1.128694 0.897671 4.151330 0.221275 0.000000 0.000000 0.000000 2.020609 -0.218209 2.221780 -2.822139 21.486013 -10.912014 -6.347631 13.676851 2.995934 0.000000 0.000000 0.000000 0.208894 0.583220 1.483881 -0.133098 -9.577653 -0.647404 1.611309 -3.662485 -0.357573 -55.747632 -0.378450 -34.814126 6.583546 -63.897608 8.031126 0.000000 0.000000 0.000000 0.718130 0.044282 1.730051 3.581110 3.684074 2.880760 -0.051858 0.183468 -0.740784 -0.021736 -11.164873 72.046208 11.089938 26.704353 0.000130 0.000000 0.000000 0.000000 
2.630424 98.736084 -2.903385 0.000000 0.000000 0.000000 5.900048 -28.628675 3.995954 -21.281573 14.353928 12.007632 19.538256 12.857823 -1.628736 -1.322050 -3.393805 -3.093635 1.241995 -0.067760 -0.643681 0.000000 0.000000 0.000000 7.106142 -26.189160 3.762957 -16.490788 1.229310 -12.419862 16.644319 12.049520 0.669753 -4.203049 -1.755090 3.804802 1.901791 0.218980 -0.130359 0.000000 0.000000 0.000000 5.628688 -32.554669 2.106637 9.655685 0.509238 2.051736 0.310246 -0.148243 -0.053894 1.057679 3.980761 0.577225 0.000000 0.000000 0.000000 2.297538 -0.338065 0.939184 -3.544431 19.653987 -12.198980 -8.825322 14.632642 1.469906 0.000000 0.000000 0.000000 0.555165 0.496622 0.404229 -0.345942 -8.410532 -1.582933 2.730603 -3.804842 0.563543 -54.698825 1.696273 -32.761101 -0.741782 -64.370230 0.645053 0.000000 0.000000 0.000000 0.632940 -0.153960 0.459534 3.398621 3.747333 -0.855412 -0.258488 -0.626857 0.148258 2.849791 -12.611873 76.231461 9.197021 27.195716 1.329705 0.000000 0.000000 0.000000 
3.822594 98.317200 -2.855904 0.000000 0.000000 0.000000 6.079489 -30.447248 4.434269 -22.816151 12.605187 11.929327 21.387692 11.974823 -1.988874 -2.817607 -3.674150 -3.813482 0.974633 -0.286559 -0.574999 0.000000 0.000000 0.000000 6.891296 -28.834306 4.317862 -20.544034 1.001621 -12.976071 19.307130 12.588562 0.606905 -3.154577 -0.857644 3.796789 1.761545 -0.190830 0.271446 0.000000 0.000000 0.000000 6.798212 -34.923474 3.293320 11.302348 0.408054 3.314378 0.320499 -0.190490 -1.168849 0.548154 3.715598 0.819209 0.000000 0.000000 0.000000 2.419520 -0.311380 -0.290008 -4.114255 17.049556 -13.443636 -11.324193 14.742326 0.174770 0.000000 0.000000 0.000000 0.910665 0.464875 -0.618854 -0.458611 -7.761310 -1.866003 3.743749 -3.585778 1.181995 -54.605996 4.460772 -29.746515 -10.005686 -65.049574 -8.634388 0.000000 0.000000 0.000000 0.554600 -0.229924 -0.735979 3.376092 3.816626 -4.898391 -0.255676 -1.523245 0.803851 7.426092 -13.518198 80.311386 7.679119 29.618692 2.241539 0.000000 0.000000 0.000000 
5.418694 97.651230 -2.651558 0.000000 0.000000 0.000000 6.327653 -33.453659 4.726781 -24.861247 9.722014 11.369771 24.654466 10.790317 -2.272905 -5.467200 -4.513372 -4.834434 0.929335 -0.532636 -0.269610 0.000000 0.000000 0.000000 7.077782 -33.483957 4.978203 -25.056194 1.385504 -12.686878 22.023250 13.455540 0.418317 -1.580178 0.601297 4.594142 1.488085 -0.610532 0.400805 0.000000 0.000000 0.000000 8.212594 -38.526959 4.589348 13.431535 0.436958 4.144723 0.242431 -0.055812 -1.901326 -0.191566 3.479843 0.671612 0.000000 0.000000 0.000000 2.356429 -0.127686 -1.190405 -4.332077 13.597961 -14.239983 -13.746759 13.494152 -0.750000 0.000000 0.000000 0.000000 1.136192 0.512493 -1.278932 -0.476326 -7.669754 -1.338217 4.620886 -2.807341 1.414495 -56.130116 7.100234 -26.579804 -20.918781 -66.198432 -19.663831 0.000000 0.000000 0.000000 0.476105 -0.164190 -1.544510 3.516010 4.126944 -8.712139 -0.332872 -2.418523 1.232254 12.892549 -13.043003 83.171357 6.981710 32.923957 2.315466 0.000000 0.000000 0.000000 
7.294023 96.748795 -2.428036 0.000000 0.000000 0.000000 6.733652 -37.815773 4.922324 -27.081881 5.815477 10.321370 28.738096 9.507978 -2.360256 -8.940415 -5.521475 -6.056770 0.986930 -0.734765 0.126282 0.000000 0.000000 0.000000 7.723812 -39.597400 5.620972 -29.560178 2.322795 -11.327070 24.203137 14.727010 0.011680 0.533568 2.805710 6.634652 0.254117 -0.993185 0.036163 0.000000 0.000000 0.000000 9.813464 -43.244796 5.840442 15.982023 0.580929 4.385410 0.018504 0.195161 -2.022842 -0.446198 3.060999 0.143235 0.000000 0.000000 0.000000 2.112132 0.167695 -1.491789 -4.102999 9.176080 -14.146813 -15.942642 10.524063 -1.280027 0.000000 0.000000 0.000000 1.173356 0.642199 -1.342544 -0.347676 -8.155010 0.084576 5.569604 -1.699155 1.416199 -59.416888 8.775120 -24.093479 -32.948904 -67.616168 -32.131351 0.000000 0.000000 0.000000 0.387424 0.026599 -1.700662 3.765456 4.869469 -11.771821 -0.874844 -2.737562 1.505375 18.069016 -10.701243 83.671689 7.550048 35.565983 1.079356 0.000000 0.000000 0.000000 
9.449152 95.702606 -2.218307 0.000000 0.000000 0.000000 7.474958 -43.640145 5.105552 -29.510567 1.396633 9.126794 33.028312 8.574995 -2.275965 -12.177357 -6.270081 -7.208637 1.024639 -0.851320 0.363621 0.000000 0.000000 0.000000 8.745859 -46.506820 6.123358 -33.613478 3.507847 -8.987626 25.324991 16.164070 -0.584768 2.895290 5.580275 9.468671 -1.474041 -1.205356 -0.617239 0.000000 0.000000 0.000000 11.525711 -48.825618 6.928838 18.766349 0.756295 4.042034 -0.314039 0.503305 -1.426706 -0.188128 2.570481 0.036261 0.000000 0.000000 0.000000 1.704656 0.495928 -1.065912 -3.418649 3.980209 -12.866342 -17.703002 5.838091 -1.382876 0.000000 0.000000 0.000000 0.983948 0.806428 -0.732366 -0.059706 -9.127508 2.137202 6.496489 -0.581422 1.338457 -63.924929 9.356398 -22.729034 -44.756843 -68.867261 -44.695177 0.000000 0.000000 0.000000 0.327880 0.291411 -1.122571 4.090277 6.100513 -13.645943 -1.728966 -2.069078 1.414107 21.728353 -6.932276 81.465463 9.486023 36.404058 -1.537948 0.000000 0.000000 0.000000 
11.742455 94.669334 -2.104530 0.000000 0.000000 0.000000 8.394757 -50.541088 5.250897 -32.101076 -2.625925 8.312982 37.259932 8.321576 -2.147224 -14.276551 -6.492819 -7.914612 1.118246 -0.883850 0.212738 0.000000 0.000000 0.000000 10.120507 -53.730684 6.588719 -37.015042 4.455704 -6.011084 25.374993 17.180808 -1.218863 4.998226 8.219498 12.086947 -2.868676 -1.204728 -1.085988 0.000000 0.000000 0.000000 13.185259 -54.928327 7.812503 21.561476 0.866604 3.271579 -0.671166 0.782475 -0.209393 0.404207 2.452359 0.292287 0.000000 0.000000 0.000000 1.166755 0.800937 0.012168 -2.292719 -1.674912 -10.340998 -19.023392 -0.225113 -1.186118 0.000000 0.000000 0.000000 0.587305 0.947131 0.435087 0.403054 -10.616254 4.530576 7.005147 0.423658 1.197060 -68.582674 9.180518 -22.612303 -54.116866 -69.754393 -55.032275 0.000000 0.000000 0.000000 0.203165 0.581865 0.075242 4.492681 7.819070 -14.329242 -2.754522 -1.003450 0.904126 23.218671 -2.474880 76.800587 12.302008 35.041510 -4.995227 0.000000 0.000000 0.000000 
14.007463 93.740784 -1.891930 0.000000 0.000000 0.000000 9.500332 -58.206018 5.532168 -34.510023 -5.513034 8.197209 41.302700 8.908176 -2.065748 -15.178868 -6.046620 -7.738702 1.605370 -0.909178 -0.332598 0.000000 0.000000 0.000000 11.637360 -60.868863 7.073530 -39.702517 4.759477 -3.077878 25.260587 17.188666 -1.854242 6.626289 9.867824 13.154746 -3.097306 -1.009883 -0.826940 0.000000 0.000000 0.000000 14.817890 -61.382309 8.572163 24.138334 0.898848 2.279081 -1.005898 0.956028 1.398727 1.007764 2.487166 0.522552 0.000000 0.000000 0.000000 0.567405 0.984667 1.528369 -0.969106 -7.351052 -6.754588 -19.794291 -6.848877 -0.814972 0.000000 0.000000 0.000000 0.064620 1.008408 1.942365 1.046662 -12.485605 6.957597 7.061395 1.046916 0.869002 -72.431281 8.599782 -23.514996 -59.156596 -70.437507 -61.064097 0.000000 0.000000 0.000000 -0.039074 0.805091 1.668221 4.923181 9.853357 -14.043851 -3.691891 -0.085469 -0.007118 22.498056 2.152511 70.750173 15.239721 32.259414 -8.475127 0.000000 0.000000 0.000000 
